<?xml version="1.0" encoding="UTF-8"?>
<svg id="Layer_1" xmlns="http://www.w3.org/2000/svg" version="1.1" viewBox="0 0 570.3 168.8">
  <!-- Generator: Adobe Illustrator 29.5.1, SVG Export Plug-In . SVG Version: 2.1.0 Build 141)  -->
  <path d="M168.9,124.2c-6,0-8.1,3.6-9.2,5.6h-.4v-15.9h-6.3v42.8h6.1v-5h.5c1.1,2.1,3.4,5.6,9.3,5.6s13.4-6.2,13.4-16.6c0-10.4-5.6-16.5-13.4-16.5ZM167.6,152c-5.4,0-8.4-4.6-8.4-11.4s2.9-11.2,8.4-11.2,8.5,4.8,8.5,11.2-2.9,11.4-8.5,11.4Z"/>
  <path d="M199.5,149.6h-.3l-8.1-24.9h-6.7l11.8,32.5-.8,2.1c-1.6,4.3-3.8,4.6-7.3,3.7l-1.5,5.1c.8.3,2.4.7,4.3.7,5.2,0,8.4-2.7,10.3-7.8l13.2-36.4h-6.7l-8.2,25Z"/>
  <path d="M260.9,141.6c0,5.8-4,10-10.5,10s-10.5-4.2-10.5-10v-27.6h-6.5v28.2c0,9,6.7,15.4,17,15.4s17-6.4,17-15.4v-28.2h-6.5v27.6Z"/>
  <path d="M290.7,138.8l-5.1-1.2c-3.5-.8-5.1-2-5-4.2,0-2.5,2.7-4.2,6.2-4.2s5.7,2.2,6.4,4.3l5.7-1c-1.3-5-5.2-8.3-12.1-8.3s-12.4,3.8-12.4,9.5,2.8,7.6,8.8,8.9l5.4,1.2c3.1.7,4.5,2.1,4.5,4.1s-2.7,4.4-6.8,4.4-6.1-1.6-6.9-4.8l-6,.9c1,5.7,5.8,8.9,13,8.9s13.1-4.1,13.1-9.9c0-4.5-2.9-7.3-8.8-8.6Z"/>
  <path d="M318.3,124.2c-9,0-14.8,6.8-14.8,16.7s5.8,16.5,15.3,16.5,12-3.5,13.4-8.7l-5.9-1.1c-1.1,3-3.8,4.6-7.4,4.6-5.4,0-9-3.5-9.1-9.7h22.8v-2.2c0-11.6-7-16.1-14.3-16.1ZM309.7,137.9c.3-4.6,3.6-8.5,8.6-8.5s8,3.6,8.1,8.5h-16.7Z"/>
  <path d="M344.4,129.7h-.3v-5.1h-6v32.1h6.3v-19.6c0-4.2,3.2-7.2,7.7-7.2s2.8.2,3.3.4v-6c-.6,0-1.9,0-2.7,0-3.9,0-7.1,2.1-8.3,5.5Z"/>
  <path d="M371.6,129.5c4,0,6.4,2.5,7.1,5.5h6.1c-.7-6.5-6-10.8-13.3-10.8s-14.9,6.8-14.9,16.6,5.6,16.6,15,16.6,12.5-4.6,13.2-10.8h-6.1c-.8,3.5-3.5,5.5-7.1,5.5-5.3,0-8.7-4.4-8.7-11.4,0-6.9,3.4-11.2,8.7-11.2Z"/>
  <path d="M403.4,124.2c-8.9,0-14.8,6.8-14.8,16.7s5.8,16.5,15.3,16.5,12-3.5,13.4-8.7l-5.9-1.1c-1.1,3-3.8,4.6-7.4,4.6-5.4,0-8.9-3.5-9.1-9.7h22.8v-2.2c0-11.6-7-16.1-14.3-16.1ZM394.8,137.9c.3-4.6,3.6-8.5,8.6-8.5s8,3.6,8.1,8.5h-16.7Z"/>
  <path d="M439,124.2c-4.8,0-8,2.2-9.5,5.6h-.4v-5.2h-6v32.1h6.3v-19.1c0-5.1,3.1-8.1,7.5-8.1s6.8,2.8,6.8,7.4v19.7h6.3v-20.4c0-7.8-4.5-12-11-12Z"/>
  <path d="M469,151.6c-2,0-3.8-.7-3.8-4.3v-17.7h6.6v-5h-6.6v-7.7h-6.3v7.7h-4.7v5h4.7v19c0,5.8,4.4,8.7,9.4,8.6,2,0,3.3-.4,4.1-.7l-1.1-5.2c-.5,0-1.2.3-2.3.3Z"/>
  <path d="M483.6,129.7h-.3v-5.1h-6v32.1h6.3v-19.6c0-4.2,3.2-7.2,7.7-7.2s2.8.2,3.3.4v-6c-.6,0-1.9,0-2.7,0-3.9,0-7.1,2.1-8.3,5.5Z"/>
  <path d="M501.5,112.2c-2.2,0-4,1.7-4,3.7s1.8,3.7,4,3.7,4-1.7,4-3.7-1.8-3.7-4-3.7Z"/>
  <rect x="498.4" y="124.6" width="6.3" height="32.1"/>
  <path d="M525.1,129.5c4,0,6.4,2.5,7.1,5.5h6.1c-.7-6.5-6-10.8-13.3-10.8s-14.9,6.8-14.9,16.6,5.6,16.6,15,16.6,12.5-4.6,13.2-10.8h-6.1c-.8,3.5-3.5,5.5-7.1,5.5-5.3,0-8.7-4.4-8.7-11.4s3.5-11.2,8.7-11.2Z"/>
  <path d="M559.4,138.8l-5.1-1.2c-3.5-.8-5.1-2-5-4.2,0-2.5,2.7-4.2,6.2-4.2s5.7,2.2,6.4,4.3l5.7-1c-1.3-5-5.2-8.3-12.1-8.3s-12.4,3.8-12.4,9.5,2.8,7.6,8.8,8.9l5.4,1.2c3.1.7,4.5,2.1,4.5,4.1s-2.7,4.4-6.8,4.4-6.1-1.6-6.9-4.8l-6,.9c1,5.7,5.8,8.9,13,8.9s13.1-4.1,13.1-9.9c0-4.5-2.9-7.3-8.8-8.6Z"/>
  <polygon points="289.7 93.1 262.8 57.3 288.9 27.4 267.6 27.4 243 56.9 243 2.4 225.7 2.4 225.7 93.2 243 93.2 243 76.4 250.7 68.2 268 93.2 289.7 93.2 289.7 93.1"/>
  <path d="M301.1,20.8h.3c5.7-.1,10.3-4.7,10.4-10.4-.1-5.7-4.7-10.3-10.4-10.4-5.6-.1-10.3,4.5-10.4,10.1v.3c-.1,5.7,4.4,10.3,10.1,10.4Z"/>
  <polygon points="292.4 94 309.2 94 309.2 94 309.2 28.2 292.4 28.2 292.4 94"/>
  <path d="M537.5,77.5c0,12.1,6.5,18.2,18.6,18.2,5.1.2,10-1.1,14.2-3.8l-3.4-13c-1.7,1.2-3.9,1.8-6,1.7h-.4c-3.5-.5-6.1-3.8-5.6-7.4v-29.8h13.4v-15.1h-13.4V10.1h-17.3v18.2h-10.8v15.1h10.8v34.1h0Z"/>
  <path d="M406.9,85.4c4.9,6.3,12.4,9.9,20.4,9.9,16.4,0,29-12.5,29-34.6s-12.5-34.6-29-34.6-15.5,3.6-20.4,9.9V2.3h-17.3v90.8h17.3v-7.7ZM406.9,49c3.4-4.7,8.9-7.6,14.7-7.7,9.9,0,16.4,7.7,16.4,19s-6.5,19-16.4,19c-5.8,0-11.2-2.8-14.7-7.4v-22.9Z"/>
  <path d="M361.1,75.7c-7.7,5.2-18.2,3.4-23.8-3.9l42-24.2-1.7-3.4c-10.8-18.5-29.4-24.7-46.3-15.1-.5.3-1,.6-1.4.9-15.7,9.8-20.5,30.3-10.7,45.9.5.9,1,1.7,1.4,2.5,9.9,15.5,30.6,20,46.1,10,8.4-4.5,14.8-11.9,18.3-20.8l-12.1-6c-2.1,5.9-6.2,11-11.8,14.1ZM338.2,40.8c.1,0,.2,0,.3-.2,7.2-4.5,16.5-2.3,20.9,4.9l-27.7,16.1c-3.6-7.6-.8-16.7,6.5-20.8Z"/>
  <path d="M83,85.2c-6.7,7.2-16.2,11.3-26,11.3-20.1,0-36.3-16.4-36.2-36.5.1-20,16.3-36.3,36.4-36.2,9.5,0,18.5,3.7,25.3,10.4,4-5.6,9.4-10.2,15.6-13.4C77.3-2.3,41.6-4.2,18.6,16.7,6.5,27.6-.3,43.1,0,59.3c-.2,31.3,25,56.9,56.2,57.1h.4c16,0,31.2-6.9,42-18.6-6-3.1-11.3-7.4-15.6-12.6Z"/>
  <path d="M115.4,24.9c-19.1.2-34.4,15.9-34.1,35,.2,19.1,15.9,34.4,35,34.1q0,0,0,0c18.9-.2,34.2-15.7,34-34.6v-.5c-.2-19.1-15.9-34.4-35-34.1ZM116.3,77.5c-9.9,0-18.1-8.2-18.2-18.2,0-10,8.1-18.2,18.2-18.2s18.2,8.1,18.2,18.2c-.1,10.1-8.2,18.2-18.2,18.2Z"/>
  <path d="M187.2,24.9c-19.1.2-34.3,15.9-34.1,35,.2,19.1,15.9,34.4,35,34.1q.1,0,.1,0c18.9-.2,34.2-15.7,34-34.6v-.5c-.2-19.1-15.9-34.4-35-34.1ZM188.1,77.5c-10,0-18.1-8.2-18.2-18.2,0-10,8.1-18.2,18.2-18.2s18.2,8.1,18.2,18.2c-.1,10.1-8.2,18.2-18.2,18.2Z"/>
  <path d="M493.8,94q.1,0,0,0c19,0,34.3-15.6,34.1-34.5v-.5c-.2-19.1-15.9-34.4-35-34.1-19.1.2-34.4,15.9-34.1,35,.2,19.1,15.9,34.4,35,34.1ZM494.3,41.2c10,0,18.2,8.1,18.2,18.2s-8.1,18.2-18.2,18.2c-10,0-18.1-8.2-18.2-18.2.1-10.1,8.2-18.2,18.2-18.2Z"/>
</svg>
