<svg width="163" height="48" viewBox="0 0 163 48" fill="none" xmlns="http://www.w3.org/2000/svg">
<rect width="48.0382" height="48" rx="10" fill="#F46A25"/>
<path fill-rule="evenodd" clip-rule="evenodd" d="M21.6215 14.7526L22.8223 8.06765V8.0672C28.1854 14.3871 25.4239 20.143 24.7828 21.479C24.7478 21.5521 24.719 21.612 24.6983 21.658L21.6215 14.7526ZM24.4394 34.9432L31.1791 34.4204C34.4378 34.1353 37.5756 30.7808 38.0365 28.1683L34.1614 27.4856C32.8265 27.2152 31.053 26.3432 30.0938 25.3772C29.6022 24.8806 29.1145 24.458 28.5128 24.1177C27.9115 23.7774 27.1957 23.5196 26.2472 23.3521L23.8577 22.9313L17.2397 8.07874C12.3183 13.624 14.7654 20.6962 18.4382 23.3926L14.1125 47.9999H33.6209L29.9507 39.7648C28.9095 37.4284 26.8949 35.6661 24.4394 34.9437V34.9432ZM26.9448 26.2025C27.3967 26.2474 27.7622 26.6126 27.8072 27.0642C27.8679 27.6748 27.3593 28.1839 26.7478 28.1238C26.2954 28.0792 25.929 27.7136 25.8844 27.2611C25.8242 26.6501 26.3337 26.1419 26.9448 26.2025Z" fill="#FEF8F5"/>
<path d="M67.7621 33H64.0381V15H69.302L73.7471 27.2727L73.8056 27.1558L78.2346 15H83.8071V33H80.0638V21.8527V20.9026L75.7357 33H71.7946L67.7621 21.695V21.8527V33Z" fill="#281001"/>
<path d="M90.6789 32.9999C89.7579 32.9999 88.95 32.8301 88.2553 32.4905C87.5767 32.1509 87.0515 31.698 86.6799 31.132C86.3245 30.5498 86.1467 29.9029 86.1467 29.1913C86.1467 27.9622 86.583 26.9757 87.4555 26.2317C88.328 25.4878 89.5882 25.1158 91.2363 25.1158H93.9507V24.8975C93.9507 24.3638 93.773 23.9272 93.4175 23.5875C93.0782 23.2317 92.6339 23.0538 92.0846 23.0538C91.5837 23.0538 91.1878 23.1671 90.897 23.3935C90.6062 23.6037 90.3961 23.8544 90.2669 24.1455H86.6799C86.7607 23.4662 87.0192 22.8193 87.4555 22.2048C87.9079 21.5902 88.5219 21.097 89.2974 20.725C90.0891 20.3369 91.0182 20.1428 92.0846 20.1428C93.1994 20.1428 94.1689 20.353 94.9929 20.7735C95.8331 21.194 96.4794 21.7681 96.9318 22.4959C97.3842 23.2075 97.6104 24.008 97.6104 24.8975V32.9999H94.1931V31.69C93.9184 32.0296 93.3529 32.3369 92.7389 32.6118C92.1411 32.8706 91.4544 32.9999 90.6789 32.9999ZM91.4787 30.1617C92.2542 30.1617 92.8601 29.9514 93.2964 29.5309C93.7326 29.1104 93.9507 28.6753 93.9507 27.5417H91.721C91.0909 27.5417 90.6142 27.663 90.2911 27.9056C89.9841 28.132 89.8306 28.4474 89.8306 28.8517C89.8306 29.256 89.9679 29.5794 90.2426 29.822C90.5335 30.0485 90.9455 30.1617 91.4787 30.1617Z" fill="#281001"/>
<rect x="106.032" y="15" width="3.74324" height="18" fill="#281001"/>
<rect x="99.9497" y="20.1429" width="3.74324" height="12.8571" fill="#281001"/>
<rect x="99.9497" y="15" width="3.74324" height="3.74026" fill="#281001"/>
<path fill-rule="evenodd" clip-rule="evenodd" d="M142.529 32.9999C146.082 32.9999 148.963 30.1218 148.963 26.5714C148.963 23.021 146.082 20.1428 142.529 20.1428C138.976 20.1428 136.095 23.021 136.095 26.5714C136.095 30.1218 138.976 32.9999 142.529 32.9999ZM142.529 29.7272C144.273 29.7272 145.687 28.3143 145.687 26.5714C145.687 24.8284 144.273 23.4155 142.529 23.4155C140.785 23.4155 139.371 24.8284 139.371 26.5714C139.371 28.3143 140.785 29.7272 142.529 29.7272Z" fill="#281001"/>
<path fill-rule="evenodd" clip-rule="evenodd" d="M156.566 32.9999C160.119 32.9999 163 30.1218 163 26.5714C163 23.021 160.119 20.1428 156.566 20.1428C153.013 20.1428 150.133 23.021 150.133 26.5714C150.133 30.1218 153.013 32.9999 156.566 32.9999ZM156.566 29.7272C158.31 29.7272 159.725 28.3143 159.725 26.5714C159.725 24.8284 158.31 23.4155 156.566 23.4155C154.822 23.4155 153.408 24.8284 153.408 26.5714C153.408 28.3143 154.822 29.7272 156.566 29.7272Z" fill="#281001"/>
<path fill-rule="evenodd" clip-rule="evenodd" d="M118.549 32.9999C121.232 32.9999 123.532 31.3586 124.497 29.026H120.534C119.992 29.4645 119.301 29.7272 118.549 29.7272C117.004 29.7272 115.719 28.6195 115.445 27.1559H123.696V27.1558H124.956C124.974 26.9633 124.983 26.7684 124.983 26.5714C124.983 23.021 122.102 20.1428 118.549 20.1428C114.996 20.1428 112.115 23.021 112.115 26.5714C112.115 30.1218 114.996 32.9999 118.549 32.9999ZM115.664 25.2857H121.434C120.941 24.1836 119.835 23.4155 118.549 23.4155C117.263 23.4155 116.156 24.1836 115.664 25.2857Z" fill="#281001"/>
<path fill-rule="evenodd" clip-rule="evenodd" d="M127.322 20.1428H130.598V22.0128L131.65 20.1428H131.651H132.703H134.926V23.8831H134.795C134.792 23.8831 134.788 23.8831 134.785 23.8831H133.78C133.777 23.8831 133.773 23.8831 133.77 23.8831L132.469 23.8831L132.468 23.8831C131.658 23.8837 131.076 24.8584 131.066 26.0695V32.9999H127.322V23.4155H127.322V20.1428Z" fill="#281001"/>
</svg>
