<?xml version="1.0" encoding="UTF-8"?><svg id="Ebene_1" xmlns="http://www.w3.org/2000/svg" viewBox="0 0 128 32"><defs><style>.cls-1{fill:#333;}.cls-1,.cls-2{stroke-width:0px;}.cls-2{fill:#ff9800;}</style></defs><g id="Deine_Tür"><g id="g4206"><path id="path4208" class="cls-1" d="m38.32,8.66c-.61-.63-1.35-1.13-2.2-1.47s-1.8-.52-2.83-.52h-5.35v14.65h5.35c1.05,0,1.98-.18,2.83-.52s1.59-.83,2.2-1.47c.61-.63,1.09-1.39,1.43-2.3s.52-1.92.52-3.05-.18-2.14-.52-3.05c-.34-.89-.81-1.65-1.43-2.28h0Zm.42,8.09c-.28.79-.67,1.47-1.19,2.02-.52.56-1.13.97-1.86,1.27-.73.28-1.53.44-2.42.44h-4.26V7.55h4.26c.89,0,1.68.14,2.42.44.73.28,1.35.71,1.86,1.27s.91,1.23,1.19,2.02.44,1.7.44,2.74c0,1.01-.14,1.92-.44,2.74Zm4.42,4.58h8.76v-.87h-7.71v-6.13h6.4v-.85h-6.4v-5.93h7.71v-.87h-8.76v14.65Zm12.07,0h1.07V6.67h-1.07v14.65Zm15.66-2.36c0,.2.02.4.04.59l-9.47-12.69c-.06-.08-.12-.14-.18-.16-.04-.04-.12-.04-.22-.04h-.52v14.65h.91v-12.33c0-.2-.02-.38-.04-.59l9.51,12.71c.1.14.22.2.38.2h.52V6.67h-.95l.02,12.29h0Zm4.76,2.36h8.76v-.87h-7.71v-6.13h6.4v-.85h-6.4v-5.93h7.71v-.87h-8.76v14.65Zm13.38-13.76h5.17v13.74h1.07V7.57h5.13v-.91h-11.38v.91Zm20.34-2.89c.08.08.16.12.28.18.1.04.2.06.34.06.12,0,.22-.02.32-.06s.2-.12.28-.18c.08-.08.14-.16.2-.26.04-.1.06-.2.06-.32s-.02-.22-.06-.32c-.04-.12-.12-.2-.2-.28s-.18-.14-.28-.2c-.1-.04-.2-.06-.32-.06-.22,0-.44.08-.59.26s-.26.36-.26.59c0,.12.02.22.06.32.06.1.12.18.18.26Zm2.93,11.04c0,.67-.1,1.31-.3,1.9s-.5,1.09-.89,1.55c-.38.44-.85.77-1.41,1.01s-1.19.36-1.88.36-1.33-.12-1.88-.38-1.03-.59-1.41-1.03c-.38-.44-.67-.95-.87-1.55s-.3-1.23-.3-1.9V6.65h-1.07v9.06c0,.81.12,1.55.38,2.26.26.69.61,1.31,1.09,1.82s1.07.93,1.74,1.23c.67.3,1.47.44,2.32.44s1.63-.14,2.32-.44c.67-.3,1.27-.69,1.74-1.23.48-.52.83-1.13,1.09-1.82s.38-1.47.38-2.26V6.67h-1.05v9.04h0Zm-7.22-11.04c.08.08.16.12.28.18.1.04.2.06.32.06s.22-.02.32-.06c.12-.04.2-.12.28-.18.08-.08.14-.16.2-.26.04-.1.08-.2.08-.32s-.04-.22-.08-.32c-.04-.12-.12-.2-.2-.28s-.16-.14-.28-.2c-.12-.04-.2-.06-.32-.06s-.22.02-.32.06c-.1.04-.2.12-.28.2s-.14.18-.18.28c-.04.12-.06.2-.06.32s.02.22.06.32c.02.1.1.18.18.26Zm17.36,10.31c-.12-.18-.28-.32-.44-.42.63-.06,1.23-.22,1.72-.44.52-.22.95-.52,1.31-.85s.63-.75.83-1.23c.2-.46.28-.97.28-1.55,0-1.27-.42-2.22-1.25-2.87s-2.1-.99-3.79-.99h-3.73v14.63h1.07v-6.58h1.92c.28,0,.5.04.61.1.14.06.26.18.38.32l4.7,5.93c.08.1.16.16.24.2s.18.06.28.06h.91l-5.05-6.3h0Zm-1.47-1.07h-2.54v-6.4h2.68c1.31,0,2.3.26,2.97.75.67.52,1.03,1.27,1.03,2.32,0,.52-.1.97-.28,1.39-.2.42-.46.75-.81,1.05-.36.28-.79.52-1.31.67-.52.14-1.11.22-1.74.22h0Z"/></g></g><g id="Farbfüllung_3"><g id="g4211"><path id="path4213" class="cls-1" d="m18.93,19.66l-.22,4.94-14.13,2.24-.06-25.91,14.31,2,.06,5.57.2-.1V2.61L3.97.23l.04,3.53-3.51-.14.18,20.83,3.21.16.08,2.89,15.18-2.54v-5.43s-.22.12-.22.12Zm-12.9-5.31l2.81-.06-.02-.73h-2.72l-.08.79Z"/></g></g><g id="g4215"><path id="path4217" class="cls-2" d="m31.4,31.05v.56h-3.51v-.56l2.54-3.61h-2.34v-.57h3.31v.4l-2.62,3.79h2.62Z"/><path id="path4219" class="cls-2" d="m36.16,31.63h-.67v-.91c-.34.69-.85,1.03-1.51,1.03-.5,0-.87-.16-1.15-.5-.28-.32-.42-.77-.42-1.37v-3.05h.73v3.03c0,.48.1.79.3.97s.42.28.65.28.46-.06.65-.2.36-.34.5-.57c.12-.26.2-.52.2-.81v-2.68h.73l-.02,4.78h0Z"/><path id="path4221" class="cls-2" d="m40.1,31.63v-6.44h2.16c.91,0,1.61.3,2.12.93.52.61.75,1.39.75,2.26s-.24,1.68-.73,2.3c-.5.63-1.11.93-1.88.93l-2.42.02h0Zm.81-.69h1.31c.69,0,1.21-.24,1.57-.71.36-.48.54-1.11.54-1.9,0-.63-.16-1.21-.52-1.72-.34-.52-.87-.75-1.61-.75h-1.31v5.09h.02Z"/><path id="path4223" class="cls-2" d="m49.42,30.2l.69.14c-.12.42-.38.73-.73,1.01-.36.28-.79.4-1.29.4-.65,0-1.17-.24-1.57-.69s-.59-1.07-.59-1.8.2-1.37.63-1.84c.42-.46.95-.71,1.57-.71s1.13.22,1.51.63c.38.44.57,1.07.57,1.94h-3.45c0,.71.16,1.21.46,1.47.3.26.61.38.95.38.57.02,1.01-.28,1.25-.91h0Zm-.04-1.45c0-.28-.06-.5-.12-.71-.08-.22-.22-.38-.42-.52-.2-.14-.44-.22-.71-.22-.38,0-.67.12-.93.4s-.4.61-.44,1.07h2.62v-.02Z"/><path id="path4225" class="cls-2" d="m52.08,25.19v.81h-.79v-.81h.79Zm-.02,1.67v4.76h-.73v-4.76h.73Z"/><path id="path4227" class="cls-2" d="m57.27,31.63h-.69v-3.05c0-.44-.1-.75-.28-.93-.2-.18-.42-.28-.69-.28-.38,0-.69.16-.95.46s-.38.71-.38,1.19v2.62h-.73v-4.76h.69v.87c.38-.67.89-1.01,1.51-1.01.36,0,.65.1.91.28.26.18.42.38.52.61s.14.63.14,1.25l-.04,2.76h0Z"/><path id="path4229" class="cls-2" d="m61.89,30.2l.69.14c-.12.42-.38.73-.73,1.01-.36.28-.79.4-1.29.4-.65,0-1.17-.24-1.57-.69s-.59-1.07-.59-1.8.2-1.37.63-1.84c.42-.46.95-.71,1.57-.71s1.13.22,1.51.63c.38.44.57,1.07.57,1.94h-3.45c0,.71.16,1.21.46,1.47.3.26.61.38.95.38.59.02,1.01-.28,1.25-.91h0Zm-.04-1.45c0-.28-.06-.5-.12-.71-.08-.2-.22-.38-.42-.52-.2-.14-.44-.22-.71-.22-.38,0-.67.12-.93.4s-.4.61-.44,1.07h2.62v-.02Z"/><path id="path4231" class="cls-2" d="m70.15,31.63h-.71v-2.97c0-.3-.02-.54-.06-.69s-.14-.3-.3-.42-.34-.2-.56-.2c-.28,0-.56.12-.81.38-.26.26-.4.65-.4,1.19v2.68h-.71v-3.13c0-.42-.1-.71-.3-.89-.2-.16-.42-.26-.63-.26-.32,0-.59.14-.81.42-.24.28-.34.61-.34,1.03v2.83h-.71v-4.76h.63v.91c.36-.69.85-1.05,1.47-1.05.34,0,.63.12.87.34s.4.5.46.81c.34-.75.83-1.13,1.51-1.13.32,0,.59.1.85.28.24.18.4.4.48.63s.12.57.12,1.01l-.04,2.99h0Z"/><path id="path4233" class="cls-2" d="m78.1,30.94v.67h-4.54v-.67l3.49-5.05h-3.33v-.65h4.28v.54l-3.53,5.17h3.63Z"/><path id="path4235" class="cls-2" d="m82.82,31.63h-.65v-.91c-.34.69-.85,1.03-1.51,1.03-.5,0-.87-.16-1.15-.5s-.42-.77-.42-1.37v-3.05h.73v3.03c0,.48.1.79.3.97s.42.28.65.28.46-.06.65-.2.36-.34.5-.57c.12-.26.2-.52.2-.81v-2.68h.73l-.04,4.78h0Z"/><path id="path4237" class="cls-2" d="m88.03,31.63h-.73v-2.89c0-.34-.02-.59-.06-.77-.04-.16-.14-.32-.3-.44s-.34-.2-.56-.2c-.38,0-.71.16-.95.46-.26.3-.38.73-.38,1.25v2.56h-.73v-6.44h.73v2.56c.34-.67.81-1.01,1.45-1.01.28,0,.52.06.73.16s.38.26.5.44.2.36.24.52c.04.18.06.46.06.87v2.95h0Z"/><path id="path4239" class="cls-2" d="m93.23,31.63h-.73c-.02-.16-.06-.44-.1-.85-.34.67-.89.99-1.67.99-.54,0-.95-.14-1.23-.42s-.42-.63-.42-1.03c0-.5.2-.89.61-1.19s1.11-.46,2.08-.46c.12,0,.34,0,.63.02,0-.38-.02-.65-.1-.81-.06-.16-.18-.3-.38-.4s-.44-.16-.73-.16c-.75,0-1.19.28-1.31.85l-.67-.12c.16-.87.87-1.33,2.1-1.33.65,0,1.13.14,1.39.44.28.3.42.79.42,1.51v2.02c.02.34.04.63.1.93h0Zm-.81-2.4c-.3-.02-.52-.02-.69-.02-.59,0-1.03.1-1.35.3-.32.2-.5.48-.5.85,0,.24.1.44.26.59s.42.24.75.24c.46,0,.81-.16,1.11-.5.28-.32.44-.71.44-1.13,0-.12-.02-.22-.02-.34h0Z"/><path id="path4241" class="cls-2" d="m98.36,31.63h-.67v-.91c-.34.69-.85,1.03-1.51,1.03-.5,0-.87-.16-1.15-.5-.28-.32-.42-.77-.42-1.37v-3.05h.73v3.03c0,.48.1.79.3.97s.42.28.65.28.46-.06.65-.2.36-.34.5-.57c.12-.26.2-.52.2-.81v-2.68h.73l-.02,4.78h0Z"/><path id="path4243" class="cls-2" d="m99.19,30.38l.71-.14c.16.59.65.89,1.49.89.3,0,.56-.06.77-.2.22-.14.32-.34.32-.59,0-.38-.28-.61-.81-.71l-.99-.2c-.4-.08-.71-.22-.93-.46-.24-.22-.34-.52-.34-.87,0-.4.16-.73.48-.99.32-.28.73-.4,1.29-.4,1.03,0,1.68.42,1.9,1.21l-.67.14c-.2-.5-.59-.73-1.21-.73-.3,0-.56.06-.73.2s-.3.3-.3.52c0,.34.24.57.73.67l.93.16c.97.18,1.47.65,1.47,1.41,0,.44-.18.79-.54,1.07s-.85.42-1.45.42c-1.15-.02-1.84-.48-2.12-1.39h0Z"/><path id="path4245" class="cls-2" d="m107.46,30.2l.69.14c-.12.42-.38.73-.73,1.01-.36.28-.79.4-1.29.4-.65,0-1.17-.24-1.57-.69s-.59-1.07-.59-1.8.2-1.37.63-1.84c.42-.46.95-.71,1.57-.71s1.13.22,1.51.63c.38.44.57,1.07.57,1.94h-3.45c0,.71.16,1.21.46,1.47.3.26.61.38.95.38.57.02,1.01-.28,1.25-.91h0Zm-.04-1.45c0-.28-.06-.5-.12-.71-.08-.2-.22-.38-.42-.52-.2-.14-.44-.22-.71-.22-.38,0-.67.12-.93.4s-.4.61-.44,1.07h2.62v-.02Z"/></g></svg>