<?xml version="1.0" encoding="UTF-8" standalone="no"?>
<!-- Created with Inkscape (http://www.inkscape.org/) -->

<svg
   version="1.1"
   id="svg2"
   xml:space="preserve"
   width="1799.51"
   height="502.77802"
   viewBox="0 0 539.85301 150.8334"
   xmlns:xlink="http://www.w3.org/1999/xlink"
   xmlns="http://www.w3.org/2000/svg"
   xmlns:svg="http://www.w3.org/2000/svg"
   xmlns:rdf="http://www.w3.org/1999/02/22-rdf-syntax-ns#"
   xmlns:cc="http://creativecommons.org/ns#"
   xmlns:dc="http://purl.org/dc/elements/1.1/"><metadata
     id="metadata8"><rdf:RDF><cc:Work
         rdf:about=""><dc:format>image/svg+xml</dc:format><dc:type
           rdf:resource="http://purl.org/dc/dcmitype/StillImage" /></cc:Work></rdf:RDF></metadata><defs
     id="defs6"><linearGradient
   id="linearGradient1220"><stop
     id="stop1216"
     offset="0"
     style="stop-color:#0042b3;stop-opacity:1;" /><stop
     id="stop1218"
     offset="1"
     style="stop-color:#000000;stop-opacity:1;" /></linearGradient><linearGradient
   x1="0"
   y1="0"
   x2="1"
   y2="0"
   gradientUnits="userSpaceOnUse"
   gradientTransform="matrix(-139.45511,-135.52185,-135.52185,139.45511,177.4727,131.75308)"
   spreadMethod="pad"
   id="linearGradient28"><stop
     style="stop-opacity:1;stop-color:#00afbc"
     offset="0"
     id="stop24" /><stop
     style="stop-opacity:1;stop-color:#205374"
     offset="1"
     id="stop26" /></linearGradient><clipPath
   clipPathUnits="userSpaceOnUse"
   id="clipPath38"><path
     d="M 0,127.984 H 415.474 V 0 H 0 Z"
     id="path36" /></clipPath><linearGradient
   xlink:href="#linearGradient1220"
   id="linearGradient947"
   gradientUnits="userSpaceOnUse"
   x1="14.915152"
   y1="14.167241"
   x2="214.11908"
   y2="111.76186"
   gradientTransform="matrix(1.3333322,0,0,-1.3333322,1.4909048,160.74004)" /><clipPath
   clipPathUnits="userSpaceOnUse"
   id="clipPath38-9"><path
     d="M 0,127.984 H 415.474 V 0 H 0 Z"
     id="path36-1" /></clipPath>










<clipPath
   clipPathUnits="userSpaceOnUse"
   id="clipPath38-3"><path
     d="M 0,127.984 H 415.474 V 0 H 0 Z"
     id="path36-5" /></clipPath></defs><g
     id="g40"
     transform="matrix(1.3333333,0,0,-1.3333333,224.76159,32.92067)" /><g
     id="g44"
     transform="matrix(1.3333333,0,0,-1.3333333,192.92306,74.082135)" /><path
     id="path1"
     style="fill:#ffffff;fill-opacity:1;stroke:none;stroke-width:1.32735"
     d="m 35.661931,9.2984771 c -8.068918,0 -14.668375,6.6007879 -14.668375,14.6683759 V 126.86656 c 0,8.06893 6.599457,14.66837 14.668375,14.66837 H 254.71984 c 8.0676,0 14.66897,-6.60078 14.66897,-14.66837 v -24.23749 c 0,-2.683906 1.06552,-5.258903 2.96494,-7.158333 l 12.07383,-12.073246 c 3.37147,-3.370134 3.36193,-8.83624 -0.0176,-12.195752 L 272.37529,59.232903 c -1.91138,-1.89943 -2.98652,-4.484816 -2.98652,-7.179318 V 23.966853 c 0,-8.067588 -6.60137,-14.668376 -14.66897,-14.668376 z" /><path
     id="path30"
     style="fill:url(#linearGradient947);fill-opacity:1;stroke:none;stroke-width:1.33333"
     d="m 35.128116,9.0001521 c -8.105326,0 -14.734559,6.6305699 -14.734559,14.7345599 V 127.0987 c 0,8.10533 6.629233,14.73455 14.734559,14.73455 H 255.17442 c 8.104,0 14.73515,-6.63056 14.73515,-14.73455 v -24.34685 c 0,-2.69601 1.07032,-5.282629 2.97832,-7.190628 L 285.0162,83.433498 c 3.38667,-3.385333 3.37709,-8.876108 -0.0176,-12.250774 L 272.90957,59.159882 c -1.92,-1.908 -3,-4.50505 -3,-7.21171 v -28.21346 c 0,-8.10399 -6.63115,-14.7345599 -14.73515,-14.7345599 z M 178.96686,31.463812 c 7.44667,0 14.20687,1.25606 20.27753,3.76406 2.632,1.088 5.08274,2.38884 7.34941,3.90351 4.80533,3.20933 5.06012,10.28126 0.42011,13.93593 -2.97733,2.34533 -7.22162,2.37784 -10.34295,0.22851 -4.91334,-3.384 -10.49186,-5.07597 -16.7332,-5.07597 -5.42399,0 -10.24004,1.13444 -14.44803,3.39844 -4.21066,2.26933 -7.48813,5.46421 -9.83613,9.59354 -2.348,4.128 -3.52089,8.863545 -3.52089,14.204874 0,5.262662 1.17289,9.957343 3.52089,14.08534 2.348,4.127997 5.60586,7.346649 9.77519,9.653314 4.168,2.30667 8.92374,3.45996 14.26639,3.45996 3.10534,0 6.04131,-0.3652 8.80664,-1.09453 2.94133,-0.776 5.18536,-2.993344 6.06269,-5.777342 0.30933,-0.986666 -0.44658,-1.991599 -1.48125,-1.991599 -5.64932,0 -10.1857,-4.76145 -9.81503,-10.489444 0.33867,-5.226665 4.91211,-9.179877 10.15077,-9.179877 h 9.71073 c 0.0867,0 0.17072,0.01023 0.25606,0.0129 0.0867,-0.0027 0.17072,-0.0129 0.25605,-0.0129 h 0.67442 c 4.77733,0 8.64844,3.871849 8.64844,8.647845 v 12.062685 c 0,9.915992 -6.37351,18.792892 -15.8455,21.728882 -0.06,0.0187 -0.12164,0.0376 -0.18164,0.0563 -6.072,1.86133 -12.1839,2.79317 -18.33457,2.79317 -8.82398,0 -16.75575,-1.88135 -23.79841,-5.64667 -7.04266,-3.764 -12.56657,-8.98403 -16.57322,-15.662688 -4.00667,-6.678661 -6.01055,-14.225302 -6.01055,-22.645296 0,-8.417328 2.00388,-15.966214 6.01055,-22.643534 4.00665,-6.67867 9.57035,-11.90002 16.69568,-15.66269 7.12,-3.76399 15.1345,-5.64667 24.03982,-5.64667 z m -124.941688,1.45664 h 1.957031 c 2.911996,0 5.670644,1.30506 7.51464,3.55839 l 32.18025,39.299973 c 2.40266,2.935998 7.160147,1.236302 7.160147,-2.557028 V 42.633532 c 0,-5.36534 4.34775,-9.71308 9.71308,-9.71308 5.36532,0 9.71483,4.34774 9.71483,9.71308 v 65.568108 c 0,5.364 -4.34951,9.71308 -9.71483,9.71308 h -1.84102 c -2.90799,0 -5.66286,-1.30236 -7.50819,-3.54902 L 70.896063,75.025887 c -2.40534,-2.929333 -7.15781,-1.228362 -7.15781,2.562301 v 30.613452 c 0,5.364 -4.347752,9.71308 -9.713081,9.71308 -5.363996,0 -9.713077,-4.34908 -9.713077,-9.71308 V 42.633532 c 0,-5.36534 4.349081,-9.71308 9.713077,-9.71308 z m 182.129738,6e-4 c 5.43199,0 9.83495,4.40237 9.83495,9.83437 v 65.323768 c 0,5.432 -4.40296,9.83496 -9.83495,9.83496 -5.432,0 -9.83436,-4.40296 -9.83436,-9.83496 V 42.755402 c 0,-5.432 4.40236,-9.83437 9.83436,-9.83437 z" /><text
     style="font-style:normal;font-variant:normal;font-weight:bold;font-stretch:normal;font-size:26.68px;font-family:'Montserrat SemiBold';-inkscape-font-specification:'Montserrat SemiBold, Bold';font-variant-ligatures:normal;font-variant-caps:normal;font-variant-numeric:normal;font-feature-settings:normal;text-align:start;writing-mode:lr-tb;text-anchor:start;fill:#6f9aa8;fill-opacity:1;fill-rule:nonzero;stroke:none;stroke-width:1.33333"
     id="text2843"
     x="310.31342"
     y="112.88041"><tspan
       id="tspan2841"
       x="310.31342"
       y="112.88041"
       style="stroke-width:1.33333" /></text><path
     style="font-weight:bold;font-size:31.76px;font-family:Montserrat;-inkscape-font-specification:'Montserrat, Bold';fill:#6f9aa8;stroke-width:1.34335"
     d="M 324.89475,93.293065 V 69.059394 h -9.55696 v -5.631772 h 26.02559 v 5.631772 h -9.55695 v 24.233671 z m 28.32951,0 13.31145,-29.865443 h 6.82638 l 13.35412,29.865443 h -7.25304 l -10.9222,-26.366916 h 2.73053 l -10.96485,26.366916 z m 6.65574,-6.399739 1.83459,-5.247784 h 15.35936 l 1.87723,5.247784 z m 42.025,6.399739 V 63.427622 h 6.91172 v 24.233672 h 14.97537 v 5.631771 z M 446.1059,75.45913 h 14.37804 v 5.375779 H 446.1059 Z m 0.51195,12.287494 h 16.25535 v 5.546441 H 439.74882 V 63.427622 h 22.56974 v 5.546443 h -15.70071 z m 33.8333,5.546441 V 63.427622 h 12.92746 q 4.01051,0 6.91172,1.32262 2.90124,1.279944 4.47981,3.711844 1.57862,2.4319 1.57862,5.802427 0,3.327863 -1.57862,5.759763 -1.57857,2.389235 -4.47981,3.669182 -2.90121,1.279947 -6.91172,1.279947 h -9.08762 l 3.07188,-3.029208 v 11.348868 z m 18.98587,0 -7.46635,-10.83689 h 7.38106 l 7.55166,10.83689 z m -12.07415,-10.5809 -3.07188,-3.242534 h 8.70365 q 3.19987,0 4.77848,-1.365276 1.57861,-1.407942 1.57861,-3.839842 0,-2.474565 -1.57861,-3.839841 -1.57861,-1.365278 -4.77848,-1.365278 h -8.70365 l 3.07188,-3.285197 z"
     id="text2191"
     aria-label="T A L E R&#10;" /></svg>
