<svg xmlns="http://www.w3.org/2000/svg" width="100%" height="100%" viewBox="0 0 242 237" fill-rule="evenodd" stroke-linejoin="round" stroke-miterlimit="2"><g transform="translate(-844.242 396.422)"><clipPath id="A"><path d="M844.242-396.422h241.346v236.975H844.242z"/></clipPath><g clip-path="url(#A)"><path d="M1075.339-395.845H956.414c-61.817 0-111.929 49.638-111.929 110.863v115.717c0 5.742 4.7 10.396 10.496 10.396H967.26c65.483 0 118.571-52.583 118.571-117.45v-109.133c0-5.738-4.696-10.392-10.492-10.392" fill="#d7df22" fill-rule="nonzero"/><g transform="matrix(-4.16667 0 0 4.16667 964.109 -202.61)"><path d="M0-36.547c10.189 0 18.449 8.181 18.449 18.274S10.189 0 0 0-18.449-8.181-18.449-18.273-10.189-36.547 0-36.547" fill="#fff" fill-rule="nonzero"/></g></g></g></svg>